<svg width="64" height="64" viewBox="0 0 64 64" fill="none" xmlns="http://www.w3.org/2000/svg">
  <g transform="translate(32 32)">
    <ellipse cx="22" cy="0" rx="7" ry="3.4" transform="rotate(15 22 0)" fill="currentColor" opacity="0.3"/>
    <ellipse cx="19.052" cy="11" rx="7" ry="3.4" transform="rotate(45 19.052 11)" fill="currentColor" opacity="0.3"/>
    <ellipse cx="11" cy="19.052" rx="7" ry="3.4" transform="rotate(75 11 19.052)" fill="currentColor" opacity="0.3"/>
    <ellipse cx="0" cy="22" rx="7" ry="3.4" transform="rotate(105 0 22)" fill="currentColor" opacity="0.3"/>
    <ellipse cx="-11" cy="19.052" rx="7" ry="3.4" transform="rotate(135 -11 19.052)" fill="currentColor" opacity="0.3"/>
    <ellipse cx="-19.052" cy="11" rx="7" ry="3.4" transform="rotate(165 -19.052 11)" fill="currentColor" opacity="0.3"/>
    <ellipse cx="-22" cy="0" rx="7" ry="3.4" transform="rotate(195 -22 0)" fill="currentColor" opacity="0.3"/>
    <ellipse cx="-19.052" cy="-11" rx="7" ry="3.4" transform="rotate(225 -19.052 -11)" fill="currentColor" opacity="0.3"/>
    <ellipse cx="-11" cy="-19.052" rx="7" ry="3.4" transform="rotate(255 -11 -19.052)" fill="currentColor" opacity="0.3"/>
    <ellipse cx="0" cy="-22" rx="7" ry="3.4" transform="rotate(285 0 -22)" fill="currentColor" opacity="0.3"/>
    <ellipse cx="11" cy="-19.052" rx="7" ry="3.4" transform="rotate(315 11 -19.052)" fill="currentColor" opacity="0.3"/>
    <ellipse cx="19.052" cy="-11" rx="7" ry="3.4" transform="rotate(345 19.052 -11)" fill="currentColor" opacity="0.3"/>
    <ellipse cx="14" cy="0" rx="6" ry="3" transform="rotate(0 14 0)" fill="currentColor" opacity="0.45"/>
    <ellipse cx="12.124" cy="7" rx="6" ry="3" transform="rotate(30 12.124 7)" fill="currentColor" opacity="0.45"/>
    <ellipse cx="7" cy="12.124" rx="6" ry="3" transform="rotate(60 7 12.124)" fill="currentColor" opacity="0.45"/>
    <ellipse cx="0" cy="14" rx="6" ry="3" transform="rotate(90 0 14)" fill="currentColor" opacity="0.45"/>
    <ellipse cx="-7" cy="12.124" rx="6" ry="3" transform="rotate(120 -7 12.124)" fill="currentColor" opacity="0.45"/>
    <ellipse cx="-12.124" cy="7" rx="6" ry="3" transform="rotate(150 -12.124 7)" fill="currentColor" opacity="0.45"/>
    <ellipse cx="-14" cy="0" rx="6" ry="3" transform="rotate(180 -14 0)" fill="currentColor" opacity="0.45"/>
    <ellipse cx="-12.124" cy="-7" rx="6" ry="3" transform="rotate(210 -12.124 -7)" fill="currentColor" opacity="0.45"/>
    <ellipse cx="-7" cy="-12.124" rx="6" ry="3" transform="rotate(240 -7 -12.124)" fill="currentColor" opacity="0.45"/>
    <ellipse cx="0" cy="-14" rx="6" ry="3" transform="rotate(270 0 -14)" fill="currentColor" opacity="0.45"/>
    <ellipse cx="7" cy="-12.124" rx="6" ry="3" transform="rotate(300 7 -12.124)" fill="currentColor" opacity="0.45"/>
    <ellipse cx="12.124" cy="-7" rx="6" ry="3" transform="rotate(330 12.124 -7)" fill="currentColor" opacity="0.45"/>
    <circle r="4" fill="currentColor"/>
  </g>
</svg>
