<svg width="12" height="8" viewBox="0 0 12 8" fill="none" xmlns="http://www.w3.org/2000/svg">
<path fill-rule="evenodd" clip-rule="evenodd" d="M11.2592 0.586309C10.9498 0.676123 10.368 0.898555 10.1415 1.34362C9.92819 1.76221 10.069 2.33754 10.1975 2.67C10.5067 2.58029 11.0899 2.35786 11.3165 1.91238C11.5432 1.46731 11.3731 0.881208 11.2592 0.586309V0.586309ZM9.90061 3.2559L9.8123 3.0852C9.78893 3.03973 9.24209 1.96278 9.67303 1.11688C10.1036 0.270778 11.3136 0.0439321 11.3648 0.034694L11.5576 0L11.6459 0.170699C11.6693 0.216171 12.216 1.29302 11.7849 2.13912C11.3548 2.98482 10.1447 3.21187 10.0933 3.22111L9.90061 3.2559Z" fill="#919191"/>
<path fill-rule="evenodd" clip-rule="evenodd" d="M2.64475 2.64779C2.57917 1.28343 1.44022 0.194878 0.032959 0.161621V5.38256C0.0340116 5.38256 0.0350642 5.38246 0.0361169 5.38236C0.101696 6.74672 1.24064 7.83537 2.64791 7.86852V2.64769C2.64685 2.64769 2.6458 2.64779 2.64475 2.64779" fill="#919191"/>
<path fill-rule="evenodd" clip-rule="evenodd" d="M5.71726 2.64779C5.65168 1.28343 4.51273 0.194878 3.10547 0.161621V5.38256C3.10652 5.38256 3.10757 5.38246 3.10873 5.38236C3.17421 6.74672 4.31315 7.83537 5.72052 7.86852V2.64769C5.71947 2.64769 5.71831 2.64779 5.71726 2.64779" fill="#919191"/>
<path fill-rule="evenodd" clip-rule="evenodd" d="M8.79001 2.64779C8.72433 1.28343 7.58549 0.194878 6.17822 0.161621V5.38256C6.17928 5.38256 6.18033 5.38246 6.18138 5.38236C6.24696 6.74672 7.38601 7.83537 8.79317 7.86852V2.64769C8.79212 2.64769 8.79106 2.64779 8.79001 2.64779" fill="#919191"/>
</svg>
